<svg xmlns:xlink="http://www.w3.org/1999/xlink" xmlns="http://www.w3.org/2000/svg" class="MuiSvgIcon-root MuiSvgIcon-fontSizeMedium css-if10g5" focusable="false" viewBox="0 0 80 80" aria-hidden="true" width="80"  height="80" ><g stroke="none" stroke-width="1" fill="none" fill-rule="evenodd"><g transform="translate(24.000000, 16.000000)" fill="#000552" fill-rule="nonzero"><path d="M25.78125,41.25 L27.84375,41.25 C28.413,41.25 28.875,40.788 28.875,40.21875 L28.875,34.03125 C28.875,33.462 28.413,33 27.84375,33 C27.2745,33 26.8125,33.462 26.8125,34.03125 L26.8125,39.1875 L25.78125,39.1875 C25.212,39.1875 24.75,39.6495 24.75,40.21875 C24.75,40.788 25.212,41.25 25.78125,41.25 Z M29.90625,0 L3.09375,0 C1.3880625,0 0,1.3880625 0,3.09375 L0,44.34375 C0,45.6864375 0.8641875,46.8208125 2.0625,47.24775 L2.0625,48.46875 C2.0625,49.038 2.5245,49.5 3.09375,49.5 C3.663,49.5 4.125,49.038 4.125,48.46875 L4.125,47.4375 L28.875,47.4375 L28.875,48.46875 C28.875,49.038 29.337,49.5 29.90625,49.5 C30.4755,49.5 30.9375,49.038 30.9375,48.46875 L30.9375,47.24775 C32.1358125,46.8208125 33,45.6864375 33,44.34375 L33,3.09375 C33,1.3880625 31.6119375,0 29.90625,0 Z M30.9375,44.34375 C30.9375,44.913 30.4755,45.375 29.90625,45.375 L3.09375,45.375 C2.5245,45.375 2.0625,44.913 2.0625,44.34375 L2.0625,28.875 L30.9375,28.875 L30.9375,44.34375 Z M30.9375,26.8125 L2.0625,26.8125 L2.0625,3.09375 C2.0625,2.5245 2.5245,2.0625 3.09375,2.0625 L29.90625,2.0625 C30.4755,2.0625 30.9375,2.5245 30.9375,3.09375 L30.9375,26.8125 Z M27.84375,14.4375 C27.2745,14.4375 26.8125,14.8995 26.8125,15.46875 L26.8125,20.625 L25.78125,20.625 C25.212,20.625 24.75,21.087 24.75,21.65625 C24.75,22.2255 25.212,22.6875 25.78125,22.6875 L27.84375,22.6875 C28.413,22.6875 28.875,22.2255 28.875,21.65625 L28.875,15.46875 C28.875,14.8995 28.413,14.4375 27.84375,14.4375 Z" fill="#000552"></path></g></g></svg>